<svg
            t="1677308564749"
            class="icon"
            viewBox="0 0 1024 1024"
            version="1.1"
            xmlns="http://www.w3.org/2000/svg"
            p-id="21842"
            width="20"
            height="20"
          >
            <path
              d="M792.038974 0a168.041026 168.041026 0 0 1 167.699693 157.013333l0.341333 11.027693v403.298461h-67.21641V168.041026a100.811487 100.811487 0 0 0-91.149128-100.352l-9.675488-0.472616H254.307692a100.824615 100.824615 0 0 0-100.352 91.149128L153.483077 168.041026v672.164102a100.824615 100.824615 0 0 0 91.149128 100.352l9.675487 0.472616h336.082052V1008.246154H254.307692A168.041026 168.041026 0 0 1 86.608 851.232821L86.266667 840.205128V168.041026A168.041026 168.041026 0 0 1 243.28 0.341333L254.307692 0zM657.606154 504.123077a201.649231 201.649231 0 0 1 164.338872 318.477128l75.014564 75.014564a33.608205 33.608205 0 0 1-47.524103 47.510975l-75.001436-75.001436a201.649231 201.649231 0 1 1-116.841025-366.001231z m0 67.21641a134.432821 134.432821 0 1 0 134.43282 134.432821 134.432821 134.432821 0 0 0-134.43282-134.432821zM455.956923 504.123077v67.21641H254.307692V504.123077z m336.082051-134.432821v67.216411H254.307692v-67.216411z m0-134.43282v67.21641H254.307692v-67.21641z m0 0"
              fill="#4b4b4b"
              p-id="21843"
            ></path>
          </svg>