<svg
            t="1677308812693"
            class="icon"
            viewBox="0 0 1024 1024"
            version="1.1"
            xmlns="http://www.w3.org/2000/svg"
            p-id="22963"
            width="32"
            height="32"
          >
            <path
              d="M64 960 64 64l504 0 0 112L176 176l0 672 672 0L848 512 960 512l0 448L64 960zM550.848 626.752C550.848 626.752 550.848 626.752 550.848 626.752l-14.272 14.272c-10.944 10.944-28.672 10.944-39.616 0 0 0 0 0 0 0L457.408 601.408c0 0 0 0 0 0L299.008 443.008c-10.944-10.944-10.944-28.672 0-39.616l39.616-39.616c10.944-10.944 28.672-10.944 39.616 0L516.8 502.4l295.488-295.488c18.816-18.816 42.944-25.216 53.888-14.272l39.616 39.616c10.944 10.944 4.544 35.072-14.272 53.888L550.848 626.752z"
              p-id="22964"
              fill="#4b4b4b"
            ></path>
          </svg>