<svg t="1678977591152" class="icon" viewBox="0 0 1024 1024" version="1.1" xmlns="http://www.w3.org/2000/svg" p-id="13270" width="128" height="128"><path d="M950.633412 155.602824H73.366588A73.456941 73.456941 0 0 0 0 228.969412v561.031529a73.441882 73.441882 0 0 0 73.366588 73.366588h877.266824A73.441882 73.441882 0 0 0 1024 790.000941V228.969412a73.456941 73.456941 0 0 0-73.366588-73.366588zM993.882353 790.000941a43.294118 43.294118 0 0 1-43.248941 43.248941H73.366588A43.294118 43.294118 0 0 1 30.117647 790.000941V228.969412a43.294118 43.294118 0 0 1 43.248941-43.248941h877.266824A43.294118 43.294118 0 0 1 993.882353 228.969412v561.031529z" p-id="13271" fill="#ffffff"></path><path d="M150.362353 589.718588c34.063059 12.016941 83.215059 15.224471 106.902588 15.224471 25.825882 0 76.378353-4.186353 110.095059-15.841883 16.850824-6.460235 20.389647-17.468235 20.389647-25.569882 0-59.964235-41.140706-110.366118-96.632471-124.822588 23.552-11.956706 39.875765-36.156235 39.875765-64.316235 0-39.905882-32.466824-72.387765-72.387765-72.387765s-72.387765 32.466824-72.387764 72.387765c0 28.16 16.338824 52.359529 39.875764 64.316235-55.491765 14.471529-96.632471 64.858353-96.63247 124.822588 0.030118 16.353882 11.670588 21.865412 20.901647 26.187294z m50.928941-215.326117c0-31.608471 25.720471-57.328941 57.328941-57.328942s57.328941 25.720471 57.328941 57.328942-25.720471 57.328941-57.328941 57.328941-57.328941-25.735529-57.328941-57.328941z m57.328941 75.068235c62.900706 0 114.070588 51.169882 114.070589 114.070588 0 3.659294-1.28 7.890824-10.480942 11.429647-31.503059 10.872471-81.091765 14.923294-104.944941 14.923294-22.723765 0-69.737412-3.026824-101.180235-14.08-9.712941-4.592941-11.550118-6.550588-11.550118-12.272941 0.015059-62.900706 51.184941-114.070588 114.085647-114.070588zM451.764706 328.779294c0 4.141176 6.776471 7.529412 15.058823 7.529412h391.529412c8.282353 0 15.058824-3.388235 15.058824-7.529412s-6.776471-7.529412-15.058824-7.529412H466.823529c-8.282353 0-15.058824 3.388235-15.058823 7.529412zM451.764706 449.249882c0 4.141176 6.776471 7.529412 15.058823 7.529412h391.529412c8.282353 0 15.058824-3.388235 15.058824-7.529412s-6.776471-7.529412-15.058824-7.529411H466.823529c-8.282353 0-15.058824 3.388235-15.058823 7.529411zM451.764706 569.720471c0 4.141176 6.776471 7.529412 15.058823 7.529411h391.529412c8.282353 0 15.058824-3.388235 15.058824-7.529411s-6.776471-7.529412-15.058824-7.529412H466.823529c-8.282353 0-15.058824 3.388235-15.058823 7.529412zM135.529412 690.191059c0 4.141176 6.776471 7.529412 15.058823 7.529412h707.764706c8.282353 0 15.058824-3.388235 15.058824-7.529412s-6.776471-7.529412-15.058824-7.529412H150.588235c-8.282353 0-15.058824 3.388235-15.058823 7.529412z" p-id="13272" fill="#ffffff"></path></svg>