<svg t="1678957200632" class="icon" viewBox="0 0 1024 1024" version="1.1" xmlns="http://www.w3.org/2000/svg" p-id="6393" width="128" height="128"><path d="M735.008 805.376c-18.944-2.976-19.392-54.656-19.392-54.656s55.68-54.656 67.808-128.16c32.64 0 52.8-78.144 20.16-105.632 1.376-28.928 41.984-227.168-163.584-227.168-205.568 0-164.96 198.24-163.584 227.168-32.64 27.488-12.48 105.632 20.16 105.632 12.128 73.504 67.84 128.16 67.84 128.16s-0.416 51.68-19.392 54.656C483.968 815.008 256 914.688 256 1024l384 0 384 0C1024 914.688 796.032 815.008 735.008 805.376zM344.064 822.816c44.096-27.136 97.632-52.32 141.536-67.424-15.744-22.432-33.28-52.928-44.32-89.056-15.392-12.576-27.936-30.528-36-52.608-8.064-22.112-11.136-46.848-8.608-69.696 1.792-16.384 6.464-31.68 13.664-45.088-4.352-46.592-7.424-138.048 52.448-204.736 23.2-25.856 52.544-44.448 87.712-55.68C544.192 173.76 511.296 97.76 384 97.76c-205.568 0-164.96 198.24-163.584 227.168-32.64 27.488-12.48 105.632 20.16 105.632 12.128 73.504 67.84 128.16 67.84 128.16s-0.416 51.68-19.392 54.656C227.968 623.008 0 722.688 0 832l329.6 0C334.304 828.928 339.104 825.856 344.064 822.816z" fill="#ffffff" p-id="6394"></path></svg>