<svg
            t="1679043771309"
            class="icon"
            viewBox="0 0 1024 1024"
            version="1.1"
            xmlns="http://www.w3.org/2000/svg"
            p-id="4561"
            width="30"
            height="30"
          >
            <path
              d="M874.690416 495.535003c0 5.423523-2.159176 10.632151-5.996574 14.46955l-223.00912 223.00912c-4.001127 3.990894-9.240455 5.996574-14.46955 5.996574-5.239328 0-10.478655-1.995447-14.479783-5.996574-7.992021-7.992021-7.992021-20.947078 0-28.939099l188.083679-188.083679-604.773963 0c-11.2973 0-20.466124-9.168824-20.466124-20.466124 0-11.307533 9.168824-20.466124 20.466124-20.466124l604.753497 0-188.073446-188.073446c-7.992021-7.992021-7.992021-20.947078 0-28.949332 7.992021-7.992021 20.957311-7.992021 28.949332 0l223.019353 223.029586C872.53124 484.902852 874.690416 490.101247 874.690416 495.535003z"
              p-id="4562"
              fill="#ffffff"
            ></path>
          </svg>