<svg t="1681288417354" class="icon" viewBox="0 0 1024 1024" version="1.1" xmlns="http://www.w3.org/2000/svg" p-id="5327" width="512" height="512"><path d="M512.199961 0C229.955087 0 0.299941 229.655145 0.299941 512 0.299941 794.344855 229.955087 1024 512.199961 1024c282.344855 0 512-229.655145 512-512C1024.199961 229.655145 794.544815 0 512.199961 0z m459.21031 512c0 253.150557-205.959773 459.21031-459.21031 459.21031S53.089631 765.150557 53.089631 512s205.959773-459.21031 459.21031-459.21031 459.11033 206.059754 459.11033 459.21031z" fill="#f26820" p-id="5328"></path><path d="M653.67233 284.944347l-428.516306 166.967389c-17.796524 6.898653-28.494435 23.695372-27.294669 42.791642 1.299746 19.09627 14.097247 34.293302 32.693615 38.892404l228.65534 55.689123L560.990432 798.044132c7.298574 14.89709 21.995704 24.095294 38.292521 24.095294 2.09959 0 4.29916-0.199961 6.698691-0.499902 18.99629-2.899434 33.093536-16.99668 35.99297-35.89299l69.586409-454.211287c2.399531-15.396993-3.399336-30.394064-15.596953-40.092169-11.997657-9.698106-27.894552-12.097637-42.29174-6.498731z m3.199375 55.389182l-62.287835 406.120679-90.082405-184.563952c-5.598906-11.497754-15.996876-19.796134-28.494435-22.795548l-202.660418-49.390353L656.871705 340.333529z" fill="#f26820" p-id="5329"></path></svg>