<svg t="1683722644659" class="icon" viewBox="0 0 1024 1024" version="1.1" xmlns="http://www.w3.org/2000/svg" p-id="3517" width="128" height="128"><path d="M431.841867 297.770847 57.763077 297.770847c-29.511127 0-53.44012 23.927969-53.44012 53.439096l0 133.599787c0 29.512151 23.927969 53.439096 53.44012 53.439096l374.079814 0c29.510104 0 53.441143-23.926946 53.441143-53.439096L485.284033 351.20892C485.281987 321.697793 461.351971 297.770847 431.841867 297.770847zM431.841867 591.688947 111.202173 591.688947c-29.511127 0-53.44012 23.926946-53.44012 53.43705l0 320.638671c0 29.514197 25.859971 53.442166 55.371098 53.442166l317.740668 0c29.512151 0 53.441143-23.927969 53.441143-53.442166l0.966001-320.638671C485.281987 615.615892 461.351971 591.688947 431.841867 591.688947zM271.027252 4.817726c-30.5549-0.964978-88.405469 27.528983-106.383936 52.474119-64.895009 90.101087-16.726963 213.759455 187.038884 213.759455 87.361697 0 160.318312-76.088956 160.318312-106.879216C512.000512 133.354194 412.8974 9.252735 271.027252 4.817726zM436.044586 163.596985c-3.236718 19.649526-40.159652 45.716204-109.621677 45.716204-78.986959 0-139.599432-37.703717-135.059022-98.581226 2.687202-35.983539 51.977815-50.152237 79.664388-50.152237C401.598053 60.578704 437.191712 156.655899 436.044586 163.596985zM966.237947 297.770847 592.162226 297.770847c-29.512151 0-53.442166 23.927969-53.442166 53.439096l0 133.599787c0 29.512151 23.930015 53.439096 53.442166 53.439096l374.076744 0c29.512151 0 53.44012-23.926946 53.44012-53.439096L1019.67909 351.20892C1019.67602 321.697793 995.750097 297.770847 966.237947 297.770847zM667.856186 271.050276c198.103894 0 244.939595-123.657344 181.844581-213.759455C832.24521 32.345686 775.988951 3.851725 746.26907 4.817726c-137.904837 4.436032-234.268558 128.537492-234.268558 159.353334C512.000512 194.96132 582.923818 271.050276 667.856186 271.050276zM746.26907 60.578704c26.929326 0 74.835406 14.168698 77.471442 50.152237 4.411473 60.877509-54.537104 98.581226-131.303488 98.581226-67.556629 0-103.435791-26.066679-106.593713-45.716204C584.748373 156.655899 619.349425 60.578704 746.26907 60.578704zM912.796804 591.688947 592.162226 591.688947c-29.512151 0-53.442166 23.926946-53.442166 53.43705l0 320.638671c0 29.514197 24.894993 53.442166 54.405097 53.442166L910.865825 1019.206834c29.514197 0 53.442166-23.927969 53.442166-53.442166l1.930979-320.638671C966.237947 615.615892 942.309978 591.688947 912.796804 591.688947z" p-id="3518" ></path></svg>