<svg t="1683706122705" class="icon" viewBox="0 0 1024 1024" version="1.1" xmlns="http://www.w3.org/2000/svg" p-id="2383" width="128" height="128"><path d="M511 181.2c-182.3 0-330 147.7-330 330s147.7 330 330 330 330-147.7 330-330-147.7-330-330-330z m45.5 373.5l12.3-12.5c6.3-6.5 16.5-6.5 22.8 0l99.9 102.9c6.3 6.4 6.3 16.8 0 23.2l-45.6 46.6c-6.3 6.4-16.5 6.4-22.8 0l-99.9-103c-6.3-6.4-6.3-16.8 0-23.2l11.2-11.5-19.6-20.1-138 154c-12.6 12.9-33 12.9-45.6 0l-11.4-11.6c-12.6-12.9-12.6-33.6 0-46.5L477 518.4l-104.5-107-33-0.1-38.2-62.7 30.8-31.4 62.8 39.3 0.5 33L501 497.9l30.8-26.4c-30-41.8-27-100.7 10.1-138.6 30.7-31.4 75.8-39.2 113.7-23.4l-67.7 68.2 56.9 58.1 67.9-68.3c15.8 38.8 8.2 85-22.6 116.6-34 34.7-85.4 40.1-125.3 17.2l-28.9 32.2 20.6 21.2z" p-id="2384" fill="#2d8cf0"></path><path d="M511.3 127.3c51.9 0 102.2 10.1 149.5 30.2 45.7 19.3 86.8 47 122.1 82.3s63 76.4 82.3 122.1c20 47.3 30.2 97.6 30.2 149.5s-10.1 102.2-30.2 149.5c-19.3 45.7-47 86.8-82.3 122.1s-76.4 63-122.1 82.3c-47.3 20-97.6 30.2-149.5 30.2s-102.2-10.1-149.5-30.2c-45.7-19.3-86.8-47-122.1-82.3s-63-76.4-82.3-122.1c-20-47.3-30.2-97.6-30.2-149.5s10.1-102.2 30.2-149.5c19.3-45.7 47-86.8 82.3-122.1s76.4-63 122.1-82.3c47.4-20 97.7-30.2 149.5-30.2m0-64c-247.4 0-448 200.6-448 448s200.6 448 448 448 448-200.6 448-448-200.5-448-448-448z" p-id="2385" fill="#2d8cf0"></path></svg>