<svg t="1683791268488" class="icon" viewBox="0 0 1034 1024" version="1.1" xmlns="http://www.w3.org/2000/svg" p-id="15546" width="128" height="128"><path d="M863.535709 846.99798c-0.775758-3.878788-1.810101-13.187879-3.361616-27.79798-1.551515-14.610101-3.620202-30.254545-6.206061-46.80404-2.585859-16.420202-4.913131-32.452525-7.111111-47.709091-2.327273-15.256566-4.008081-25.729293-5.30101-31.418182-3.10303-10.860606-6.981818-19.781818-10.989899-26.892929-4.137374-6.981818-12.670707-13.834343-25.341414-20.169697-4.39596-1.939394-11.119192-4.654545-20.040404-8.145455-8.921212-3.490909-19.135354-7.369697-30.513131-11.377778-11.377778-4.137374-23.40202-8.40404-35.943435-12.929293s-24.307071-8.791919-35.814141-12.929293c-11.377778-4.137374-21.333333-7.49899-29.608081-10.084848-8.274747-2.715152-14.092929-4.39596-17.19596-5.818182-9.69697-2.585859-16.032323-5.430303-19.264646-8.662626-3.10303-3.10303-5.171717-8.533333-5.818182-16.290909-0.646465-3.749495-0.905051-9.179798-0.90505-16.290909V523.636364c0-7.628283 0.258586-15.515152 0.90505-23.919192 6.464646-6.335354 12.8-13.317172 19.135354-20.945455 5.171717-6.981818 10.084848-14.739394 14.868687-23.40202 4.783838-8.662626 8.40404-18.230303 10.989899-29.220202 4.39596-20.29899 7.111111-36.331313 8.016161-47.709091 0.905051-11.377778 1.422222-18.10101 1.422222-20.169697 0-3.749495 1.810101-5.688889 5.301011-5.30101 3.490909 0.258586 7.111111-1.810101 10.989899-6.206061 2.585859-2.456566 4.266667-9.050505 5.30101-20.040404 0.905051-10.860606 1.422222-23.014141 1.422222-36.331313 0-13.446465-0.258586-26.246465-0.905051-38.270707-0.646465-12.153535-0.905051-21.074747-0.90505-26.892929-1.292929-18.488889-6.723232-34.00404-16.290909-46.416162-9.438384-12.412121-21.591919-20.169697-36.331313-23.40202-12.8-2.715152-21.591919-3.361616-27.022223-2.715152-5.042424 0.905051-9.179798 0.258586-12.412121-2.327272-1.939394-1.292929-3.878788-2.973737-5.818182-5.30101-1.939394-2.19798-4.266667-4.654545-7.111111-7.111111s-6.852525-5.30101-12.024242-8.145455c-5.171717-2.844444-11.894949-5.430303-20.169697-8.016162-7.628283-1.939394-19.006061-2.844444-34.004041-2.844444-14.99798 0-30.771717 1.422222-47.450505 3.878788-16.549495 2.585859-32.969697 6.593939-48.743434 12.024242-16.032323 5.30101-28.70303 12.282828-38.270707 20.428283-18.488889 17.19596-30.513131 36.072727-35.943434 56.50101-5.30101 20.29899-9.050505 41.761616-10.989899 64-1.292929 22.238384-2.068687 39.434343-2.456566 51.587879-0.258586 12.153535 2.068687 23.531313 7.240404 34.391919 1.939394 5.171717 4.913131 8.533333 9.050505 10.084849 4.137374 1.551515 6.723232 3.620202 7.240404 6.20606 0.517172 2.585859 2.19798 10.989899 4.783838 25.341414 2.585859 14.222222 8.274747 30.125253 17.19596 47.321213 4.39596 9.050505 9.69697 17.454545 15.256566 25.341414 5.818182 8.016162 11.377778 14.868687 17.195959 20.557575 6.464646 6.981818 13.187879 13.317172 20.169697 19.135354v55.466667c0 5.042424-3.620202 9.050505-10.989899 12.024242-7.369697 2.844444-15.773737 5.30101-25.341414 7.111111-4.39596 1.292929-14.092929 3.490909-28.70303 6.723232-14.610101 3.232323-30.254545 6.981818-46.804041 11.377778-16.420202 4.654545-32.581818 9.179798-47.70909 14.351515-15.256566 5.042424-25.858586 9.826263-31.547475 14.222223-11.377778 8.921212-19.523232 17.583838-24.307071 25.729293-4.783838 8.274747-8.40404 16.161616-10.989899 23.919191-1.292929 3.749495-3.490909 13.446465-6.723232 29.220202-3.10303 15.515152-6.723232 32.323232-10.472727 50.165657-3.749495 17.842424-7.111111 34.521212-10.084849 50.165657-2.844444 15.515152-4.654545 25.6-5.30101 30.125252-0.775758 5.171717 0 9.69697 1.939394 13.834344 1.939394 4.137374 4.654545 7.757576 8.016161 10.472727 3.490909 2.973737 7.111111 5.30101 10.989899 7.240404s6.981818 3.10303 9.69697 3.749495c12.024242 3.232323 28.961616 6.335354 50.29495 9.050505 21.333333 2.844444 45.89899 5.30101 73.696969 7.628283 27.79798 2.327273 58.181818 4.008081 91.410101 5.30101 33.228283 1.422222 68.008081 2.068687 104.210101 2.068687 36.331313 0 70.852525-0.905051 103.69293-2.456566 32.969697-1.551515 62.965657-3.620202 90.50505-6.206061 27.539394-2.456566 51.587879-5.30101 72.274748-8.016161 20.816162-2.973737 36.331313-5.688889 47.321212-8.145455 12.929293-3.10303 20.945455-7.628283 24.436363-13.317171 3.490909-5.30101 4.913131-12.412121 4.266667-20.557576z m-381.543434-68.137374l-43.054546-112.743434 38.270707-30.513132 27.539394 43.054546-22.755555 100.20202z m90.117171 0.129293l-25.858585-99.426263 27.927272-42.020202 40.210101 28.703031-42.278788 112.743434z m0 0" p-id="15547" ></path><path d="M0.117527 800.969697c0.646465-3.361616 1.551515-11.377778 2.973738-24.048485 1.422222-12.670707 3.232323-26.117172 5.30101-40.339394 2.327273-14.222222 4.266667-28.056566 6.20606-41.115151 2.068687-13.187879 3.490909-22.238384 4.525253-27.151515 2.715152-9.438384 5.947475-17.066667 9.438384-23.143435 3.620202-6.076768 10.989899-11.894949 21.850505-17.325252 3.749495-1.680808 9.567677-4.008081 17.325252-6.981819 7.628283-2.973737 16.420202-6.335354 26.375758-9.826262 9.826263-3.490909 20.169697-7.240404 30.90101-11.119192 10.731313-3.878788 20.945455-7.628283 30.90101-11.119192 9.69697-3.620202 18.359596-6.464646 25.470707-8.662626 7.111111-2.327273 12.153535-3.749495 14.868687-5.042425 8.274747-2.327273 13.834343-4.654545 16.549495-7.498989 2.715152-2.715152 4.39596-7.369697 5.042424-14.09293 0.517172-3.232323 0.775758-7.886869 0.775758-14.092929v-17.325253c0-6.593939-0.258586-13.446465-0.775758-20.557575-5.559596-5.430303-10.989899-11.507071-16.549495-18.10101-4.39596-6.076768-8.662626-12.8-12.8-20.169697-4.137374-7.49899-7.240404-15.773737-9.438384-25.212122-3.749495-17.583838-6.206061-31.288889-6.981818-41.115151-0.775758-9.826263-1.163636-15.644444-1.163636-17.325253 0-3.232323-1.551515-4.913131-4.525253-4.525252-2.973737 0.258586-6.076768-1.551515-9.438383-5.30101-2.327273-2.068687-3.749495-7.886869-4.525253-17.325253-0.775758-9.309091-1.163636-19.781818-1.163636-31.288889 0-11.636364 0.258586-22.626263 0.775757-32.969697 0.517172-10.472727 0.775758-18.230303 0.775758-23.143434 1.163636-15.90303 5.818182-29.349495 14.092929-39.951515 8.145455-10.731313 18.618182-17.454545 31.288889-20.169697 10.989899-2.327273 18.618182-2.973737 23.40202-2.327273 4.39596 0.775758 7.886869 0.129293 10.731313-2.068687 1.680808-1.034343 3.361616-2.715152 5.042425-4.525252 1.680808-1.939394 3.749495-4.008081 6.076767-6.206061 2.456566-2.068687 5.818182-4.525253 10.343435-6.981818 4.39596-2.456566 10.214141-4.654545 17.325252-6.981818 6.593939-1.680808 16.420202-2.456566 29.349495-2.456566 3.361616 0 6.723232 0 10.084849 0.258586-1.551515 1.680808-2.973737 3.361616-4.39596 5.30101-9.567677 12.412121-14.99798 27.927273-16.290909 46.416162 0 5.818182-0.258586 14.610101-0.905051 26.892929-0.646465 12.024242-0.905051 24.824242-0.90505 38.270707 0 13.317172 0.387879 25.470707 1.422222 36.331313 0.905051 10.860606 2.715152 17.583838 5.30101 20.040404 3.878788 4.39596 7.628283 6.464646 10.989899 6.206061 3.490909-0.387879 5.30101 1.422222 5.30101 5.30101 0 2.068687 0.387879 8.662626 1.422222 20.169697 0.905051 11.377778 3.620202 27.410101 8.016162 47.709091 2.585859 10.860606 6.206061 20.428283 10.989899 29.220202 4.783838 8.533333 9.69697 16.420202 14.868687 23.40202 6.464646 7.628283 12.8 14.610101 19.135353 20.945455 0.646465 8.40404 0.905051 16.290909 0.905051 23.919192v20.040404c0 6.981818-0.258586 12.541414-0.905051 16.290909-0.646465 7.757576-2.585859 13.187879-5.818181 16.290909-3.10303 3.232323-9.567677 6.076768-19.264647 8.662626-3.10303 1.422222-8.921212 3.10303-17.195959 5.818182s-18.230303 5.818182-29.608081 10.084848c-11.507071 4.137374-23.40202 8.40404-35.814142 12.929293-12.541414 4.525253-24.436364 8.791919-35.943434 12.929293-11.377778 4.137374-21.591919 8.016162-30.513131 11.377778-8.921212 3.490909-15.644444 6.206061-20.040404 8.145455-12.670707 6.335354-21.20404 13.187879-25.341414 20.169697-4.137374 7.111111-7.886869 15.90303-10.989899 26.892929-1.292929 5.688889-2.973737 16.290909-5.301011 31.418182-2.19798 15.256566-4.525253 31.288889-7.111111 47.709091s-4.654545 32.064646-6.20606 46.80404c-1.163636 11.119192-2.068687 19.135354-2.715152 24.048485-17.713131-1.810101-33.486869-3.620202-47.709091-5.559596-17.842424-2.585859-31.418182-4.913131-40.727272-6.981818-11.119192-2.715152-18.10101-6.593939-21.074748-11.507071-3.361616-5.171717-4.525253-11.377778-4.008081-18.359596z m1033.567677-5.30101c-0.646465-3.361616-1.551515-11.377778-2.973737-24.048485-1.422222-12.670707-3.232323-26.117172-5.30101-40.339394-2.327273-14.222222-4.266667-28.056566-6.206061-41.115151-2.068687-13.187879-3.490909-22.238384-4.525253-27.151516-2.715152-9.438384-5.947475-17.066667-9.438383-23.143434-3.620202-6.076768-10.989899-11.894949-21.850505-17.325252-3.878788-1.680808-9.567677-4.008081-17.325253-6.981819-7.628283-2.973737-16.420202-6.335354-26.375758-9.826262-9.826263-3.490909-20.169697-7.240404-30.90101-11.119192-10.731313-3.878788-20.945455-7.628283-30.90101-11.119192-9.69697-3.620202-18.359596-6.464646-25.470707-8.662626-7.111111-2.327273-12.153535-3.749495-14.868687-5.042425-8.274747-2.327273-13.834343-4.654545-16.549495-7.49899-2.715152-2.715152-4.39596-7.369697-5.042424-14.092929-0.517172-3.232323-0.775758-7.886869-0.775757-14.092929v-17.325253c0-6.593939 0.258586-13.446465 0.775757-20.557575 5.559596-5.430303 10.989899-11.507071 16.549495-18.10101 4.39596-6.076768 8.662626-12.8 12.8-20.169697 4.137374-7.49899 7.240404-15.773737 9.438384-25.212122 3.749495-17.583838 6.076768-31.288889 6.981818-41.115151 0.775758-9.826263 1.163636-15.644444 1.163636-17.325253 0-3.232323 1.551515-4.913131 4.525253-4.525252 2.973737 0.258586 6.206061-1.551515 9.438384-5.30101 2.327273-2.068687 3.749495-7.886869 4.525252-17.325253 0.775758-9.309091 1.163636-19.781818 1.163637-31.288889 0-11.636364-0.258586-22.626263-0.775758-32.969697-0.517172-10.472727-0.775758-18.230303-0.775757-23.143434-1.163636-15.90303-5.818182-29.220202-14.09293-39.951515-8.145455-10.731313-18.618182-17.454545-31.288889-20.169697-10.989899-2.327273-18.618182-2.973737-23.40202-2.327273-4.39596 0.775758-7.886869 0.129293-10.731313-2.068687-1.680808-1.034343-3.361616-2.585859-4.913131-4.525252-1.680808-1.939394-3.749495-4.008081-6.206061-6.206061-2.456566-2.068687-5.818182-4.525253-10.343434-6.981818-4.39596-2.456566-10.214141-4.654545-17.325253-6.981818-6.593939-1.680808-16.420202-2.456566-29.220202-2.456566-3.361616 0-6.723232 0-10.084848 0.258586 1.551515 1.680808 2.973737 3.361616 4.395959 5.30101 9.567677 12.412121 14.99798 27.927273 16.290909 46.416162 0 5.818182 0.258586 14.610101 0.905051 26.892929 0.646465 12.024242 0.905051 24.824242 0.90505 38.270707 0 13.317172-0.387879 25.470707-1.422222 36.331313-0.905051 10.860606-2.585859 17.583838-5.30101 20.040404-3.878788 4.39596-7.628283 6.464646-10.989899 6.206061-3.490909-0.387879-5.30101 1.422222-5.30101 5.30101 0 2.068687-0.387879 8.662626-1.422222 20.169697-0.905051 11.377778-3.620202 27.410101-8.016162 47.709091-2.715152 10.860606-6.206061 20.428283-10.989899 29.220202-4.783838 8.533333-9.69697 16.420202-14.868687 23.40202-6.464646 7.628283-12.8 14.610101-19.135353 20.945455-0.646465 8.40404-0.905051 16.290909-0.905051 23.919191v20.040405c0 6.981818 0.258586 12.541414 0.905051 16.290909 0.646465 7.757576 2.585859 13.187879 5.818182 16.290909 3.10303 3.232323 9.567677 6.076768 19.264646 8.662626 3.10303 1.422222 8.921212 3.10303 17.19596 5.818182 8.274747 2.585859 18.230303 5.818182 29.60808 10.084848 11.507071 4.137374 23.40202 8.40404 35.814142 12.929293 12.541414 4.525253 24.436364 8.791919 35.943434 12.929293 11.377778 4.137374 21.591919 8.016162 30.513132 11.377778 8.921212 3.490909 15.644444 6.206061 20.040404 8.145454 12.670707 6.335354 21.20404 13.187879 25.341414 20.169697 4.137374 6.981818 7.886869 15.90303 10.989899 26.89293 1.292929 5.688889 2.973737 16.290909 5.30101 31.418182 2.19798 15.256566 4.525253 31.288889 7.111111 47.70909s4.654545 32.064646 6.206061 46.804041c1.163636 11.119192 2.068687 19.135354 2.715151 24.048485 17.713131-1.810101 33.486869-3.620202 47.709091-5.559596 17.842424-2.585859 31.418182-4.913131 40.727273-6.981818 11.119192-2.715152 18.10101-6.593939 21.074747-11.507071 3.232323-5.171717 4.39596-11.377778 3.878788-18.359596z m0 0" p-id="15548" ></path></svg>