<svg t="1684041697255" class="icon" viewBox="0 0 1024 1024" version="1.1" xmlns="http://www.w3.org/2000/svg" p-id="3869" width="128" height="128"><path d="M981.954106 315.969144c-25.69749-60.694073-62.393907-115.188751-109.189337-161.984182-46.79543-46.79543-101.290108-83.491846-161.984181-109.189337C647.98672 18.198223 581.193243 4.699541 512.399961 4.699541c-68.793282 0-135.486769 13.498682-198.380627 40.096084-60.694073 25.5975-115.188751 62.393907-161.984181 109.189337S68.543306 255.275071 42.845816 315.969144C16.248413 378.763011 2.749731 445.556489 2.749731 514.349771c0 68.793282 13.498682 135.486769 40.096085 198.380626 25.69749 60.694073 62.393907 115.188751 109.189337 161.984182S253.325261 958.206425 314.019334 983.903916c62.793868 26.597403 129.587345 40.096084 198.380627 40.096084 68.793282 0 135.486769-13.498682 198.380627-40.096084 60.694073-25.69749 115.188751-62.393907 161.984181-109.189337 46.79543-46.79543 83.491846-101.290108 109.189337-161.984182 26.597403-62.793868 40.096084-129.587345 40.096084-198.380626 0-68.793282-13.498682-135.586759-40.096084-198.380627zM512.399961 983.903916c-258.97471 0-469.654135-210.679426-469.654135-469.654136S253.425251 44.595645 512.399961 44.595645s469.654135 210.679426 469.654135 469.654135S771.37467 983.903916 512.399961 983.903916z"  p-id="3870"></path><path d="M338.516942 730.92862c-10.598965 0-19.498096-7.199297-19.498096-15.698467V466.954399c0-8.49917 8.899131-15.698467 19.498096-15.698467H292.021482c-1.899814 4.899522-2.999707 10.199004-2.999707 15.698467v248.275754c0 25.197539 22.197832 45.695538 49.495167 45.695538h157.884581v-29.997071H338.516942zM705.781076 466.954399v248.275754c0 8.49917-8.899131 15.698467-19.498096 15.698467h-155.984767v29.997071h155.984767c27.297334 0 49.495166-20.497998 49.495167-45.695538V466.954399c0-5.499463-1.099893-10.798945-2.999707-15.698467h-46.49546c10.598965 0 19.498096 7.199297 19.498096 15.698467zM745.57719 301.77053H630.7884c-15.598477 10.099014-32.696807 17.898252-49.795138 22.697784-11.798848 3.299678-22.997754 4.899522-33.196758 4.899521-6.199395 0-11.998828-0.599941-17.398301-1.799824v4.19959h215.178987c8.099209 0 14.998535 5.299482 14.998535 11.698857v66.093546c0 6.299385-6.799336 11.698858-14.998535 11.698857h-59.29421c21.29792 0 39.496143 12.498779 46.49546 29.997071h12.79875c24.797578 0 44.995606-18.698174 44.995606-41.695928v-66.093546c0-22.997754-20.198028-41.695928-44.995606-41.695928z"  p-id="3871"></path><path d="M686.38297 421.258861h-155.984767v29.997071h202.480227c-6.999316-17.498291-25.197539-29.997071-46.49546-29.997071zM338.516942 421.258861h-59.29421c-8.099209 0-14.998535-5.299482-14.998535-11.698857v-66.093546c0-6.299385 6.799336-11.698858 14.998535-11.698857h217.078801v-2.699737c-4.899522 0.999902-10.099014 1.499854-15.698467 1.499854-10.698955 0-22.397813-1.899814-34.696612-5.599453-16.598379-4.999512-33.096768-13.098721-48.095303-23.197735H279.222732c-24.797578 0-44.995606 18.698174-44.995606 41.695928v66.093546c0 22.997754 20.198028 41.695928 44.995606 41.695928H292.021482c6.999316-17.498291 25.197539-29.997071 46.49546-29.997071z" p-id="3872"></path><path d="M496.401523 451.255932v-29.997071H338.516942c-21.29792 0-39.496143 12.498779-46.49546 29.997071h204.380041zM528.198418 301.77053H630.7884c5.799434-3.799629 11.398887-7.899229 16.698369-12.198808 21.597891-17.798262 41.295967-36.996387 38.896201-57.294405-1.299873-11.598867-9.299092-20.997949-23.597695-28.097256-21.697881-10.698955-58.794258-14.298604-112.189044 29.497119-15.298506 12.498779-28.497217 23.397715-37.796309 33.696709 10.898936 11.898838 16.99834 22.897764 15.398496 34.396641z m10.998926-18.498193c7.499268-7.399277 17.798262-15.998438 30.497022-26.497413 22.597793-18.598184 54.794649-38.19627 79.792208-25.79748 4.999512 2.499756 6.599356 4.29958 7.099306 4.799531-0.19998 1.599844-2.699736 9.599063-28.197246 30.597012-34.996582 28.697198-79.492237 38.796211-97.69046 29.79709-0.699932-0.299971-1.199883-0.599941-1.699834-0.899912 1.199883-1.899814 3.799629-5.599453 10.199004-11.998828zM530.398203 327.568011c5.399473 1.199883 11.198906 1.799824 17.398301 1.799824 10.199004 0 21.39791-1.599844 33.196758-4.899521 17.09833-4.799531 34.19666-12.59877 49.795138-22.697784H530.398203v25.797481z" p-id="3873"></path><path d="M499.001269 301.77053c-0.19998-0.799922-0.299971-1.499854-0.29997-2.199785-1.299873-10.998926 4.29958-21.29792 14.298603-32.296846-8.799141-9.799043-20.797969-20.098037-34.596621-31.996875-51.794942-44.795625-88.591349-41.995899-110.38922-31.696905-14.398594 6.799336-22.497803 15.998438-24.097647 27.497315-2.799727 20.198028 16.198418 39.696123 37.096378 57.794356 5.299482 4.599551 10.998926 8.899131 16.798359 12.89874H499.001269z m-98.290401-35.496533c-24.597598-21.29792-26.797383-29.197149-26.997363-30.896983 0.399961-0.499951 2.099795-2.299775 7.099306-4.699541 24.897569-11.698858 56.194512 8.39918 77.992384 27.297334 12.298799 10.598965 22.197832 19.298115 29.497119 26.897373 6.199395 6.399375 8.59916 10.199004 9.599063 12.098819-0.399961 0.19998-0.999902 0.499951-1.599844 0.899912-18.198223 8.49917-61.893956-2.399766-95.590665-31.596914z" p-id="3874"></path><path d="M480.703056 330.667708c5.499463 0 10.798945-0.499951 15.698467-1.499853v-27.297335h-98.490382c14.998535 10.199004 31.596914 18.198223 48.095304 23.197735 12.298799 3.699639 24.097647 5.599453 34.696611 5.599453zM498.701299 299.670735c0.09999 0.699932 0.19998 1.399863 0.29997 2.199785H528.298408c1.499854-11.498877-4.499561-22.497803-15.298506-34.496631-10.099014 10.998926-15.598477 21.29792-14.298603 32.296846zM496.401523 451.255932V760.925691h3.99961V451.255932zM530.398203 451.255932h-3.999609V760.925691h3.999609v-29.997071zM526.398594 451.255932h-25.997461V760.925691h25.997461V451.255932zM526.398594 421.258861h3.999609v-93.69085c-1.399863-0.299971-2.699736-0.699932-3.999609-0.999902v94.690752zM500.401133 328.167952c-1.299873 0.399961-2.699736 0.699932-3.99961 0.999903v92.190997h3.99961v-93.1909zM514.899717 321.768577c-1.699834 1.099893-3.699639 2.199785-5.899424 3.299678-2.699736 1.299873-5.599453 2.299775-8.59916 3.099697v93.1909h25.997461v-94.690753c-3.099697-0.899912-6.099404-1.999805-8.899131-3.399668-0.899912-0.599941-1.799824-1.099893-2.599746-1.499854z" p-id="3875"></path><path d="M528.198418 301.77053v0.199981c-0.299971 1.999805-0.799922 4.29958-1.899814 6.599355v17.898252c1.299873 0.399961 2.699736 0.699932 3.999609 0.999903v-25.797481h-2.099795z"  p-id="3876"></path><path d="M514.899717 321.768577c0.799922 0.499951 1.699834 0.999902 2.699736 1.399864 2.799727 1.399863 5.699443 2.499756 8.899131 3.399668v-17.898253c-1.999805 4.29958-5.499463 8.999121-11.598867 13.098721zM500.401133 306.370081c-0.599941-1.599844-1.099893-3.099697-1.399864-4.599551h-2.599746v27.297334c1.399863-0.299971 2.699736-0.599941 3.99961-0.999902v-21.697881zM514.899717 321.768577c-8.199199-4.699541-12.398789-10.199004-14.498584-15.398496v21.797871c2.999707-0.799922 5.899424-1.899814 8.59916-3.099697 2.199785-1.099893 4.0996-2.199785 5.899424-3.299678zM528.198418 301.970511v-0.199981h-1.899814v6.799336c1.099893-2.299775 1.699834-4.599551 1.899814-6.599355z"  p-id="3877"></path><path d="M500.401133 301.77053H499.001269c0.299971 1.399863 0.699932 2.999707 1.399864 4.599551v-4.599551zM514.899717 321.768577c6.199395-4.0996 9.599063-8.799141 11.498877-13.098721v-6.799336h-25.997461v4.599551c2.099795 4.999512 6.299385 10.598965 14.498584 15.298506zM526.398594 421.258861h3.999609v29.997071h-3.999609zM496.401523 421.258861h3.99961v29.997071h-3.99961zM500.401133 421.258861h25.997461v29.997071h-25.997461z"  p-id="3878"></path></svg>