<svg t="1674716768504" class="icon" viewBox="0 0 1024 1024" version="1.1" xmlns="http://www.w3.org/2000/svg" p-id="8265" width="48" height="48"><path d="M508.9 737.5c-0.9 0-1.7 0-2.6-0.1-13.3-0.8-25.4-8-32.6-19.3l-78-123.3-109 121c-15.4 17.1-41.7 18.5-58.8 3.1-17.1-15.4-18.4-41.7-3.1-58.8l145.8-161.8c8.7-9.7 21.4-14.6 34.5-13.6 13 1.1 24.7 8.2 31.7 19.2L513.3 625l157.2-190.5c7.9-9.6 19.7-15.1 32.1-15.1h65.5c23 0 41.6 18.6 41.6 41.6s-18.6 41.6-41.6 41.6h-45.9L541 722.4c-8 9.6-19.8 15.1-32.1 15.1z" fill="#5AC0F9" p-id="8266"></path><path d="M746.4 957.2H277.6C171 957.2 84.4 870.5 84.4 764V471.1c0-48.2 18.2-94.6 51.2-130.5 1.5-1.6 3.1-3.1 4.7-4.4L421.2 99.8c52.6-44.3 128.9-44.2 181.5 0.1L888 340.6c1.7 1.4 3.3 3 4.7 4.7 30.2 35.1 46.9 79.8 46.9 125.9V764c-0.1 106.5-86.7 193.2-193.2 193.2zM195.2 398.9c-17.8 20.2-27.5 45.7-27.5 72.2V764c0 60.6 49.3 109.9 109.9 109.9h468.8c60.6 0 109.9-49.3 109.9-109.9V471.1c0-25.1-8.8-49.6-24.7-69.2L549 163.6c-21.5-18.1-52.7-18.2-74.2 0L195.2 398.9z" fill="#706D7E" p-id="8267"></path></svg>